<svg width="29" height="40" viewBox="0 0 29 40" fill="none" xmlns="http://www.w3.org/2000/svg">
<rect x="1" y="1" width="198" height="38" rx="4" fill="#D9D9D9" stroke="black" stroke-width="2"/>
<path d="M8.816 14.248C10.0747 13.992 11.28 13.864 12.432 13.864C12.6773 13.864 12.8587 13.8693 12.976 13.88V16.36C12.72 16.328 12.3733 16.312 11.936 16.312C11.6693 16.312 11.2907 16.3227 10.8 16.344L8.816 16.536V14.248ZM13.744 21.688C13.744 21.4533 13.7227 21.272 13.68 21.144C13.648 21.0053 13.584 20.8987 13.488 20.824C13.328 20.7173 12.9707 20.664 12.416 20.664H10.656V18.216H12.416C12.6933 18.216 12.912 18.2053 13.072 18.184C13.232 18.1627 13.3547 18.12 13.44 18.056C13.5253 17.992 13.5787 17.9067 13.6 17.8C13.632 17.6827 13.648 17.5067 13.648 17.272V13.928C14.8 14.0453 15.632 14.3387 16.144 14.808C16.656 15.2667 16.912 15.9173 16.912 16.76C16.912 17.5387 16.7573 18.1253 16.448 18.52C16.1493 18.9147 15.6693 19.192 15.008 19.352V19.416C15.7013 19.576 16.1973 19.8267 16.496 20.168C16.8373 20.5733 17.008 21.2027 17.008 22.056C17.008 22.952 16.7947 23.6293 16.368 24.088C15.8773 24.6107 15.0027 24.936 13.744 25.064V21.688ZM12.528 25.128C11.9413 25.128 11.2693 25.0853 10.512 25C9.75467 24.9253 9.168 24.84 8.752 24.744V22.456C10.0427 22.6053 11.1947 22.68 12.208 22.68C12.4427 22.68 12.7307 22.6693 13.072 22.648V25.112C12.9653 25.1227 12.784 25.128 12.528 25.128Z" fill="black"/>
</svg>
