<svg width="24" height="24" viewBox="0 0 24 24" fill="none" xmlns="http://www.w3.org/2000/svg">
<path d="M4.47678 0.032856C3.20178 0.215668 2.06272 1.08754 1.55647 2.27817C1.24709 3.00942 1.26584 2.37192 1.26584 12C1.26584 21.6282 1.24709 20.9907 1.55647 21.7219C1.92209 22.5797 2.57834 23.2547 3.43147 23.6438C4.12522 23.9672 4.13459 23.9672 6.28147 23.986C7.61741 24 8.28303 23.9907 8.40022 23.9579C9.06584 23.7563 9.27209 22.8516 8.75647 22.3735C8.50334 22.1344 8.42366 22.125 6.59553 22.125C5.62991 22.125 4.77678 22.1063 4.63616 22.0782C4.08303 21.975 3.57678 21.5766 3.31428 21.0469L3.16428 20.7422V12V3.25785L3.31428 2.95317C3.57678 2.42348 4.08303 2.02504 4.63616 1.92192C4.80022 1.89379 6.96584 1.87504 10.758 1.87504C14.5502 1.87504 16.7158 1.89379 16.8799 1.92192C17.433 2.02504 17.9393 2.42348 18.2018 2.95317L18.3518 3.25785L18.3752 6.49223C18.394 8.77973 18.4127 9.75942 18.4549 9.84848C18.7924 10.6032 19.7908 10.6547 20.1612 9.92817C20.2455 9.75942 20.2502 9.60473 20.2502 6.51567C20.2502 3.70786 20.2408 3.23442 20.1752 2.94379C19.8612 1.56567 18.8768 0.539104 17.4612 0.112543C17.1987 0.032856 16.8143 0.0281677 10.8987 0.0187931C7.44397 0.0141048 4.55647 0.0234795 4.47678 0.032856Z" fill="black"/>
<path d="M5.53125 5.72812C5.41875 5.78906 5.25937 5.91562 5.18437 6.01406C5.04844 6.18281 5.03906 6.225 5.03906 6.5625C5.03906 6.9 5.04844 6.94219 5.18437 7.11094C5.25937 7.20937 5.41875 7.33594 5.53125 7.39219L5.7375 7.5H10.7437C15.1594 7.5 15.7734 7.49062 15.9281 7.42969C16.6922 7.10625 16.6922 6.01875 15.9281 5.69531C15.7734 5.63437 15.1594 5.625 10.7437 5.625H5.7375L5.53125 5.72812Z" fill="black"/>
<path d="M5.53125 9.47812C5.41875 9.53906 5.25937 9.66562 5.18437 9.76406C5.04844 9.93281 5.03906 9.975 5.03906 10.3125C5.03906 10.65 5.04844 10.6922 5.18437 10.8609C5.25937 10.9594 5.41875 11.0859 5.53125 11.1422L5.7375 11.25H10.7437C15.1594 11.25 15.7734 11.2406 15.9281 11.1797C16.6922 10.8562 16.6922 9.76875 15.9281 9.44531C15.7734 9.38437 15.1594 9.375 10.7437 9.375H5.7375L5.53125 9.47812Z" fill="black"/>
<path d="M19.3363 12.8203C19.0035 12.8953 18.666 13.0406 18.3754 13.2328C18.08 13.425 12.7644 18.7359 12.6566 18.9375C12.6097 19.0313 12.3144 19.95 12.0004 20.9766C11.4847 22.6734 11.4332 22.8797 11.4472 23.1422C11.4613 23.3813 11.4894 23.4656 11.6066 23.6109C11.8175 23.8734 12.1082 24.0141 12.3988 23.9813C12.6144 23.9625 15.6472 23.1422 16.3597 22.9125L16.6644 22.8141L19.3504 20.1375C22.1957 17.3063 22.3879 17.0859 22.5988 16.4672C22.6925 16.2 22.7113 16.0547 22.7113 15.5625C22.7113 14.8547 22.6175 14.5266 22.2613 13.9922C21.6238 13.0406 20.4519 12.5719 19.3363 12.8203ZM20.2879 14.6953C20.9254 14.9625 21.0613 15.7875 20.5457 16.275L20.4097 16.4063L19.7582 15.75L19.1066 15.0984L19.2425 14.9484C19.5238 14.6531 19.9363 14.55 20.2879 14.6953ZM17.3675 19.4531L15.6332 21.1828L14.7004 21.4406C14.1847 21.5859 13.7582 21.6938 13.7535 21.6891C13.7488 21.6844 13.8707 21.2672 14.0254 20.7656L14.3019 19.8516L16.0457 18.1313L17.7894 16.4156L18.4457 17.0672L19.1019 17.7188L17.3675 19.4531Z" fill="black"/>
<path d="M5.53125 13.2281C5.41875 13.2891 5.25938 13.4156 5.18438 13.5141C5.04844 13.6828 5.03906 13.725 5.03906 14.0625C5.03906 14.4 5.04844 14.4422 5.18438 14.6109C5.25938 14.7094 5.41875 14.8359 5.53125 14.8922L5.7375 15H8.85938C11.7938 15 11.9859 14.9906 12.1641 14.9109C12.9 14.5687 12.9 13.5562 12.1641 13.2141C11.9859 13.1344 11.7938 13.125 8.85938 13.125H5.7375L5.53125 13.2281Z" fill="black"/>
</svg>
