<svg width="31" height="35" viewBox="0 0 31 35" fill="none" xmlns="http://www.w3.org/2000/svg">
<path fill-rule="evenodd" clip-rule="evenodd" d="M15.585 0C11.4412 0 8.08496 3.91562 8.08496 8.75C8.08496 13.5844 11.4412 17.5 15.585 17.5C19.7287 17.5 23.085 13.5844 23.085 8.75C23.085 3.91562 19.7287 0 15.585 0ZM19.335 8.75001C19.335 6.34376 17.6475 4.37501 15.585 4.37501C13.5225 4.37501 11.835 6.34376 11.835 8.75001C11.835 11.1563 13.5225 13.125 15.585 13.125C17.6475 13.125 19.335 11.1563 19.335 8.75001ZM26.835 28.4375C26.46 26.8844 20.6475 24.0625 15.585 24.0625C10.5225 24.0625 4.70996 26.8844 4.33496 28.4594V30.625H26.835V28.4375ZM0.584961 28.4375C0.584961 22.6187 10.5787 19.6875 15.585 19.6875C20.5912 19.6875 30.585 22.6187 30.585 28.4375V35H0.584961V28.4375Z" fill="black"/>
</svg>
