<svg width="21" height="21" viewBox="0 0 21 21" fill="none" xmlns="http://www.w3.org/2000/svg">
<path fill-rule="evenodd" clip-rule="evenodd" d="M14.0733 6.29016C14.5418 6.29018 15.001 6.42064 15.3996 6.66693C15.7981 6.91321 16.1202 7.2656 16.3298 7.68462L17.4955 10.0152C17.7007 9.93106 17.9026 9.84023 18.1011 9.74267C18.3007 9.64296 18.5318 9.62664 18.7434 9.6973C18.9551 9.76797 19.13 9.91982 19.2297 10.1195C19.3295 10.3191 19.3458 10.5502 19.2751 10.7618C19.2044 10.9735 19.0526 11.1484 18.853 11.2481C18.6508 11.3381 18.4475 11.4256 18.2432 11.5106L19.0514 13.1279C19.2269 13.4786 19.3182 13.8653 19.3181 14.2574V16.3828C19.3186 16.7378 19.2439 17.089 19.0989 17.4131C18.954 17.7373 18.742 18.027 18.477 18.2633V19.3264C18.477 19.661 18.3441 19.9819 18.1075 20.2185C17.8709 20.4551 17.55 20.588 17.2154 20.588C16.8808 20.588 16.56 20.4551 16.3234 20.2185C16.0868 19.9819 15.9539 19.661 15.9539 19.3264V18.9059H5.86127V19.3264C5.86127 19.661 5.72835 19.9819 5.49176 20.2185C5.25517 20.4551 4.93428 20.588 4.59969 20.588C4.2651 20.588 3.94422 20.4551 3.70763 20.2185C3.47104 19.9819 3.33812 19.661 3.33812 19.3264V18.2633C2.82172 17.8008 2.49707 17.1296 2.49707 16.3828V14.2566C2.49723 13.865 2.58851 13.4789 2.76368 13.1287L3.5652 11.524C3.36251 11.4382 3.1615 11.3474 2.96385 11.249C2.76522 11.148 2.61424 10.973 2.54344 10.7617C2.47264 10.5504 2.48771 10.3197 2.58538 10.1195C2.63472 10.0206 2.70305 9.93238 2.78649 9.85992C2.86992 9.78747 2.96682 9.73216 3.07164 9.69717C3.17646 9.66217 3.28715 9.64818 3.39738 9.65599C3.50761 9.6638 3.61523 9.69325 3.71407 9.74267C3.91256 9.84107 4.11525 9.93106 4.31962 10.0152L5.48532 7.68546C5.69478 7.26629 6.01683 6.91373 6.41539 6.66728C6.81395 6.42084 7.27326 6.29026 7.74185 6.29016H14.0733ZM7.12284 13.8596C6.78825 13.8596 6.46737 13.9925 6.23077 14.2291C5.99418 14.4657 5.86127 14.7866 5.86127 15.1212C5.86127 15.4558 5.99418 15.7767 6.23077 16.0132C6.46737 16.2498 6.78825 16.3828 7.12284 16.3828C7.45743 16.3828 7.77832 16.2498 8.01491 16.0132C8.2515 15.7767 8.38442 15.4558 8.38442 15.1212C8.38442 14.7866 8.2515 14.4657 8.01491 14.2291C7.77832 13.9925 7.45743 13.8596 7.12284 13.8596ZM14.6923 13.8596C14.3577 13.8596 14.0368 13.9925 13.8002 14.2291C13.5636 14.4657 13.4307 14.7866 13.4307 15.1212C13.4307 15.4558 13.5636 15.7767 13.8002 16.0132C14.0368 16.2498 14.3577 16.3828 14.6923 16.3828C15.0269 16.3828 15.3478 16.2498 15.5844 16.0132C15.8209 15.7767 15.9539 15.4558 15.9539 15.1212C15.9539 14.7866 15.8209 14.4657 15.5844 14.2291C15.3478 13.9925 15.0269 13.8596 14.6923 13.8596ZM14.0733 7.97226H7.74185C7.60342 7.97224 7.46713 8.00639 7.34506 8.07168C7.22299 8.13696 7.11893 8.23137 7.0421 8.34653L6.98996 8.43736L5.92182 10.5719C7.22377 10.9622 8.9782 11.3365 10.9076 11.3365C12.7091 11.3365 14.3567 11.0101 15.6259 10.6493L15.8925 10.5719L14.8252 8.43736C14.7633 8.31357 14.6718 8.20697 14.5588 8.12701C14.4458 8.04705 14.3149 7.99621 14.1776 7.97899L14.0741 7.97226H14.0733Z" fill="#8B8585" fill-opacity="0.8"/>
</svg>
