<svg width="33" height="38" viewBox="0 0 33 38" fill="none" xmlns="http://www.w3.org/2000/svg">
<path d="M9.54323 11.4519L9.80849 8.01339C9.9514 6.15811 10.7339 4.42867 12.0009 3.16806C13.2679 1.90745 14.9267 1.20776 16.6485 1.20776C18.3702 1.20776 20.0291 1.90745 21.2961 3.16806C22.563 4.42867 23.3456 6.15811 23.4885 8.01339L23.7538 11.4519M2.53586 23.7325L3.11217 20.1967C3.79428 16.0172 4.13375 13.9275 5.48375 12.6897C6.83375 11.4519 8.7727 11.4519 12.649 11.4519H20.648C24.5243 11.4519 26.4632 11.4519 27.8132 12.6897C29.1632 13.9275 29.5027 16.0172 30.1848 20.1967L30.7611 23.7325C31.7053 29.5168 32.1759 32.409 30.7248 34.3092C29.2722 36.2078 26.588 36.2078 21.2243 36.2078H12.0727C6.70744 36.2078 4.0248 36.2078 2.57217 34.3075C1.11954 32.4073 1.59323 29.5168 2.53586 23.7325Z" stroke="black" stroke-width="2.32687" stroke-linecap="round" stroke-linejoin="round"/>
<path d="M20.0188 15.5096C19.8277 17.755 17.9114 19.4823 15.61 19.4823C13.3086 19.4823 11.3922 17.755 11.2012 15.5096" stroke="black" stroke-width="2.32687" stroke-linecap="round" stroke-linejoin="round"/>
</svg>
