<svg fill="none" height="13" viewBox="0 0 13 13" width="13" xmlns="http://www.w3.org/2000/svg">
    <g clip-path="url(#clip0_3_4728)">
        <path
            d="M6.5 12.1875C5.37512 12.1875 4.2755 11.8539 3.3402 11.229C2.40489 10.604 1.67591 9.71577 1.24544 8.67651C0.814964 7.63726 0.702333 6.49369 0.921786 5.39043C1.14124 4.28716 1.68292 3.27374 2.47833 2.47833C3.27374 1.68292 4.28716 1.14124 5.39043 0.921786C6.49369 0.702333 7.63726 0.814964 8.67651 1.24544C9.71577 1.67591 10.604 2.40489 11.229 3.3402C11.8539 4.2755 12.1875 5.37512 12.1875 6.5C12.1875 8.00842 11.5883 9.45506 10.5217 10.5217C9.45506 11.5883 8.00842 12.1875 6.5 12.1875ZM6.5 1.625C5.53582 1.625 4.59329 1.91092 3.7916 2.44659C2.98991 2.98226 2.36507 3.74363 1.99609 4.63442C1.62711 5.52521 1.53057 6.50541 1.71867 7.45107C1.90678 8.39672 2.37108 9.26537 3.05286 9.94715C3.73464 10.6289 4.60328 11.0932 5.54894 11.2813C6.4946 11.4694 7.47479 11.3729 8.36558 11.0039C9.25637 10.6349 10.0177 10.0101 10.5534 9.20841C11.0891 8.40672 11.375 7.46419 11.375 6.5C11.375 5.20707 10.8614 3.9671 9.94715 3.05286C9.03291 2.13862 7.79293 1.625 6.5 1.625Z"
            fill="black" fill-opacity="0.47" />
        <path
            d="M8.36469 8.9375L6.09375 6.66656V2.84375H6.90625V6.32938L8.9375 8.36469L8.36469 8.9375Z"
            fill="black" fill-opacity="0.47" />
    </g>
    <defs>
        <clipPath id="clip0_3_4728">
            <rect fill="white" height="13" width="13" />
        </clipPath>
    </defs>
</svg>
