<svg width="25" height="23" viewBox="0 0 25 23" fill="none" xmlns="http://www.w3.org/2000/svg">
<path fill-rule="evenodd" clip-rule="evenodd" d="M4.57212 0.53125H20.4279C21.1783 0.53125 21.8195 0.53125 22.3325 0.595375C22.8759 0.664 23.4012 0.818125 23.8333 1.22312C24.272 1.636 24.4464 2.15013 24.5229 2.6845C24.5938 3.17613 24.5938 3.787 24.5938 4.4845V5.3575C24.5938 5.90762 24.5938 6.38125 24.5533 6.77838C24.5083 7.20587 24.4126 7.60525 24.1809 7.98887C23.9502 8.37025 23.6409 8.647 23.2831 8.8945C22.9467 9.1285 22.5181 9.37037 22.0119 9.655L18.7021 11.518C17.9484 11.9421 17.6863 12.0951 17.5107 12.247C17.1091 12.5957 16.8785 12.9839 16.7705 13.4688C16.7244 13.6769 16.7188 13.9379 16.7188 14.7321V17.8056C16.7188 18.8193 16.7188 19.6799 16.6141 20.3425C16.5039 21.0456 16.2462 21.7206 15.5712 22.1425C14.9109 22.5554 14.1853 22.5171 13.4788 22.3495C12.7981 22.1886 11.96 21.8601 10.9543 21.4675L10.8575 21.4293C10.385 21.2448 9.97325 21.0839 9.647 20.9151C9.296 20.734 8.96975 20.509 8.72112 20.158C8.468 19.8025 8.36788 19.4222 8.32175 19.033C8.28125 18.6786 8.28125 18.2534 8.28125 17.7786V14.7321C8.28125 13.9379 8.27675 13.6769 8.2295 13.4688C8.12737 12.9898 7.86654 12.5593 7.48925 12.247C7.31375 12.0951 7.0505 11.9421 6.29787 11.518L2.98813 9.655C2.48188 9.37037 2.05325 9.1285 1.71687 8.8945C1.35912 8.647 1.04975 8.37025 0.819125 7.98887C0.587375 7.60525 0.49175 7.20475 0.447875 6.77838C0.40625 6.38237 0.40625 5.90762 0.40625 5.3575V4.4845C0.40625 3.787 0.40625 3.17613 0.477125 2.6845C0.553625 2.15013 0.728 1.636 1.16675 1.22312C1.59875 0.818125 2.123 0.664 2.6675 0.595375C3.1805 0.53125 3.82175 0.53125 4.57212 0.53125ZM2.879 2.2705C2.50325 2.31775 2.384 2.39425 2.32213 2.45388C2.26588 2.50563 2.19387 2.59675 2.14662 2.92412C2.096 3.28187 2.09375 3.77013 2.09375 4.54187V5.31813C2.09375 5.91888 2.09375 6.30588 2.12525 6.60513C2.1545 6.883 2.204 7.01688 2.26475 7.117C2.32662 7.21938 2.43012 7.33525 2.67875 7.5085C2.942 7.69075 3.30087 7.89438 3.84875 8.20263L7.12587 10.0476L7.21588 10.0982C7.84587 10.4526 8.27338 10.6934 8.59513 10.9724C9.24585 11.5213 9.69676 12.2701 9.87762 13.102C9.96875 13.5149 9.96875 13.9795 9.96875 14.632V17.7359C9.96875 18.2669 9.96988 18.5931 9.99913 18.8384C10.0239 19.0611 10.0655 19.1365 10.0959 19.1804C10.1296 19.2276 10.1971 19.3008 10.421 19.4166C10.6595 19.5393 10.9891 19.6686 11.5089 19.8722C12.59 20.2952 13.3179 20.5776 13.868 20.7081C14.4069 20.8364 14.5846 20.77 14.6757 20.7126C14.7522 20.6642 14.8704 20.5664 14.948 20.0793C15.029 19.5651 15.0312 18.8384 15.0312 17.7347V14.632C15.0312 13.9795 15.0312 13.5149 15.1235 13.102C15.3041 12.2702 15.7546 11.5215 16.4049 10.9724C16.7266 10.6934 17.1552 10.4515 17.783 10.0982L17.8741 10.0476L21.1513 8.20263C21.6991 7.89438 22.058 7.69075 22.3212 7.5085C22.5699 7.33525 22.6734 7.21938 22.7352 7.117C22.796 7.01688 22.8455 6.883 22.8736 6.60513C22.9051 6.30588 22.9062 5.91888 22.9062 5.317V4.54075C22.9062 3.77013 22.904 3.28075 22.8534 2.92412C22.8061 2.59675 22.733 2.50563 22.679 2.45388C22.616 2.39538 22.4967 2.31775 22.121 2.2705C21.7272 2.21987 21.1929 2.21875 20.375 2.21875H4.625C3.80713 2.21875 3.27387 2.21987 2.879 2.2705Z" fill="white"/>
</svg>
