<svg width="39" height="23" viewBox="0 0 39 23" fill="none" xmlns="http://www.w3.org/2000/svg">
<path d="M38.4747 11.0342C38.4193 10.9207 37.0782 8.21962 34.0968 5.51281C30.1242 1.90612 25.1067 0 19.584 0C14.0613 0 9.04373 1.90612 5.07114 5.51281C2.08972 8.21962 0.742303 10.925 0.693219 11.0342C0.621198 11.1813 0.583984 11.3405 0.583984 11.5014C0.583984 11.6624 0.621198 11.8216 0.693219 11.9686C0.748636 12.0822 2.08972 14.7818 5.07114 17.4886C9.04373 21.0939 14.0613 23 19.584 23C25.1067 23 30.1242 21.0939 34.0968 17.4886C37.0782 14.7818 38.4193 12.0822 38.4747 11.9686C38.5468 11.8216 38.584 11.6624 38.584 11.5014C38.584 11.3405 38.5468 11.1813 38.4747 11.0342ZM19.584 20.7C14.7105 20.7 10.4529 19.0914 6.92839 15.9203C5.4823 14.6146 4.25196 13.1257 3.27564 11.5C4.25158 9.87407 5.48196 8.38515 6.92839 7.07969C10.4529 3.90856 14.7105 2.3 19.584 2.3C24.4575 2.3 28.7151 3.90856 32.2396 7.07969C33.6885 8.38493 34.9215 9.87383 35.9002 11.5C34.7587 13.4349 29.7854 20.7 19.584 20.7ZM19.584 4.6C18.0808 4.6 16.6115 5.00468 15.3616 5.76286C14.1118 6.52104 13.1377 7.59867 12.5625 8.85948C11.9873 10.1203 11.8368 11.5077 12.13 12.8461C12.4233 14.1846 13.1471 15.4141 14.21 16.379C15.2728 17.344 16.627 18.0012 18.1013 18.2674C19.5756 18.5337 21.1037 18.397 22.4924 17.8748C23.8811 17.3525 25.0681 16.4681 25.9032 15.3334C26.7383 14.1987 27.184 12.8647 27.184 11.5C27.1819 9.67059 26.3805 7.91665 24.9557 6.62306C23.5309 5.32948 21.599 4.6019 19.584 4.6ZM19.584 16.1C18.5819 16.1 17.6023 15.8302 16.7691 15.3248C15.9359 14.8193 15.2865 14.1009 14.903 13.2603C14.5195 12.4198 14.4192 11.4949 14.6147 10.6026C14.8102 9.71027 15.2927 8.89063 16.0013 8.24731C16.7099 7.60399 17.6127 7.16588 18.5955 6.98839C19.5784 6.81089 20.5971 6.90199 21.5229 7.25015C22.4487 7.59832 23.24 8.18791 23.7968 8.94438C24.3535 9.70084 24.6507 10.5902 24.6507 11.5C24.6507 12.72 24.1168 13.89 23.1667 14.7527C22.2165 15.6154 20.9277 16.1 19.584 16.1Z" fill="black"/>
</svg>
