<svg fill="none" height="14" viewBox="0 0 14 14" width="14" xmlns="http://www.w3.org/2000/svg">
    <g clip-path="url(#clip0_3_4813)">
        <path clip-rule="evenodd" d="M3.87705 6.26604C3.73766 6.12674 3.62709 5.96134 3.55165 5.77929C3.47621 5.59724 3.43737 5.4021 3.43737 5.20504C3.43737 5.00798 3.47621 4.81285 3.55165 4.63079C3.62709 4.44874 3.73766 4.28334 3.87705 4.14404L7.46205 0.560041C7.60136 0.420651 7.76676 0.310076 7.94881 0.234634C8.13086 0.159192 8.32599 0.120361 8.52305 0.120361C8.72012 0.120361 8.91525 0.159192 9.0973 0.234634C9.27935 0.310076 9.44475 0.420651 9.58405 0.560041L11.1671 2.14404C11.4483 2.42533 11.6062 2.80679 11.6062 3.20454C11.6062 3.60229 11.4483 3.98375 11.1671 4.26504L9.91005 5.52104L13.7001 9.31004C13.7697 9.37977 13.8248 9.46253 13.8625 9.55359C13.9001 9.64465 13.9194 9.74222 13.9193 9.84075C13.9192 9.93927 13.8997 10.0368 13.8619 10.1278C13.8241 10.2188 13.7688 10.3014 13.6991 10.371C13.6293 10.4406 13.5466 10.4958 13.4555 10.5334C13.3644 10.5711 13.2669 10.5904 13.1683 10.5903C13.0698 10.5902 12.9723 10.5707 12.8813 10.5329C12.7903 10.4951 12.7077 10.4398 12.6381 10.37L8.85005 6.58304L7.58205 7.85004C7.3008 8.13094 6.91956 8.28872 6.52205 8.28872C6.12455 8.28872 5.74331 8.13094 5.46205 7.85004L3.87705 6.26604ZM1.33105 12.38H0.831055C0.632142 12.38 0.441377 12.4591 0.300725 12.5997C0.160072 12.7404 0.0810547 12.9311 0.0810547 13.13C0.0810547 13.329 0.160072 13.5197 0.300725 13.6604C0.441377 13.801 0.632142 13.88 0.831055 13.88H8.33105C8.52997 13.88 8.72073 13.801 8.86138 13.6604C9.00204 13.5197 9.08105 13.329 9.08105 13.13C9.08105 12.9311 9.00204 12.7404 8.86138 12.5997C8.72073 12.4591 8.52997 12.38 8.33105 12.38H7.83105V10.63C7.83105 10.4974 7.77838 10.3703 7.68461 10.2765C7.59084 10.1827 7.46366 10.13 7.33105 10.13H1.83105C1.69845 10.13 1.57127 10.1827 1.4775 10.2765C1.38373 10.3703 1.33105 10.4974 1.33105 10.63V12.38Z"
            fill="#838383"
            fill-rule="evenodd" />
    </g>
    <defs>
        <clipPath id="clip0_3_4813">
            <rect fill="white" height="14" width="14" />
        </clipPath>
    </defs>
</svg>
