<svg fill="none" height="24" viewBox="0 0 24 24" width="24" xmlns="http://www.w3.org/2000/svg">
    <path
        d="M19.4997 9.99992C19.4997 9.86731 19.447 9.74013 19.3532 9.64636C19.2594 9.5526 19.1323 9.49992 18.9997 9.49992C18.867 9.49992 18.7399 9.5526 18.6461 9.64636C18.5523 9.74013 18.4997 9.86731 18.4997 9.99992H19.4997ZM5.49966 9.99992C5.49966 9.86731 5.44698 9.74013 5.35321 9.64636C5.25944 9.5526 5.13226 9.49992 4.99966 9.49992C4.86705 9.49992 4.73987 9.5526 4.6461 9.64636C4.55233 9.74013 4.49966 9.86731 4.49966 9.99992H5.49966ZM20.6457 12.3539C20.7395 12.4478 20.8669 12.5005 20.9997 12.5005C21.1324 12.5005 21.2598 12.4478 21.3537 12.3539C21.4475 12.26 21.5003 12.1327 21.5003 11.9999C21.5003 11.8671 21.4475 11.7398 21.3537 11.6459L20.6457 12.3539ZM11.9997 2.99992L12.3537 2.64592C12.3072 2.59935 12.252 2.56241 12.1913 2.5372C12.1305 2.512 12.0654 2.49902 11.9997 2.49902C11.9339 2.49902 11.8688 2.512 11.808 2.5372C11.7473 2.56241 11.6921 2.59935 11.6457 2.64592L11.9997 2.99992ZM2.64565 11.6459C2.55177 11.7398 2.49902 11.8671 2.49902 11.9999C2.49902 12.1327 2.55177 12.26 2.64565 12.3539C2.73954 12.4478 2.86688 12.5005 2.99966 12.5005C3.13243 12.5005 3.25977 12.4478 3.35366 12.3539L2.64565 11.6459ZM6.99965 21.4999H16.9997V20.4999H6.99965V21.4999ZM19.4997 18.9999V9.99992H18.4997V18.9999H19.4997ZM5.49966 18.9999V9.99992H4.49966V18.9999H5.49966ZM21.3537 11.6459L12.3537 2.64592L11.6457 3.35392L20.6457 12.3539L21.3537 11.6459ZM11.6457 2.64592L2.64565 11.6459L3.35366 12.3539L12.3537 3.35392L11.6457 2.64592ZM16.9997 21.4999C17.6627 21.4999 18.2986 21.2365 18.7674 20.7677C19.2363 20.2988 19.4997 19.663 19.4997 18.9999H18.4997C18.4997 19.3977 18.3416 19.7793 18.0603 20.0606C17.779 20.3419 17.3975 20.4999 16.9997 20.4999V21.4999ZM6.99965 20.4999C6.60183 20.4999 6.2203 20.3419 5.93899 20.0606C5.65769 19.7793 5.49966 19.3977 5.49966 18.9999H4.49966C4.49966 19.663 4.76305 20.2988 5.23189 20.7677C5.70073 21.2365 6.33661 21.4999 6.99965 21.4999V20.4999Z"
        fill="black" />
</svg>
