<svg width="33" height="38" viewBox="0 0 33 38" fill="none" xmlns="http://www.w3.org/2000/svg">
<path d="M26.5389 12.5183L27.0909 11.8743C27.6039 11.2741 27.8619 10.9748 28.0164 10.6633C28.222 10.2478 28.3303 9.77641 28.3303 9.29659C28.3303 8.81677 28.222 8.3454 28.0164 7.92986C27.8619 7.61836 27.6039 7.31737 27.0909 6.71887C26.5779 6.12038 26.3199 5.81939 26.0529 5.64089C25.6967 5.40098 25.2927 5.27467 24.8814 5.27467C24.4701 5.27467 24.0661 5.40098 23.7099 5.64089C23.4429 5.81939 23.1849 6.12038 22.6719 6.71887L22.12 7.36287M15.4915 25.4051L7.20715 35.072C6.69266 35.6722 6.43616 35.9715 6.16917 36.1517C5.81299 36.3916 5.40896 36.5179 4.99768 36.5179C4.58641 36.5179 4.18238 36.3916 3.8262 36.1517C3.5577 35.9715 3.30121 35.6722 2.78821 35.072C2.27372 34.4735 2.01722 34.1725 1.86273 33.861C1.65709 33.4455 1.54883 32.9741 1.54883 32.4943C1.54883 32.0145 1.65709 31.5431 1.86273 31.1275C2.01722 30.8161 2.27372 30.5151 2.78821 29.9166L11.0726 20.2514M9.96862 18.9617L16.597 26.6966C19.1995 29.7328 20.5015 31.2518 22.12 31.2518C23.7369 31.2518 25.0389 29.7328 27.6429 26.6949C30.2468 23.6569 31.5488 22.1379 31.5488 20.2514C31.5488 18.3632 30.2468 16.8442 27.6429 13.808L21.0145 6.07313C18.412 3.03867 17.11 1.51794 15.4915 1.51794C13.8746 1.51794 12.5726 3.03692 9.96862 6.07488C7.36465 9.11284 6.06267 10.6318 6.06267 12.5183C6.06267 14.4065 7.36465 15.9255 9.96862 18.9617Z" stroke="black" stroke-width="2.2687"/>
</svg>
