<svg fill="none" height="24" viewBox="0 0 24 24" width="24" xmlns="http://www.w3.org/2000/svg">
    <path
        d="M3.49993 8.00007C3.50013 7.05199 3.7454 6.12005 4.21195 5.29471C4.67849 4.46936 5.35047 3.77862 6.16267 3.28954C6.97486 2.80045 7.89969 2.52963 8.84741 2.50334C9.79514 2.47705 10.7336 2.69619 11.5716 3.13949C12.4097 3.5828 13.1189 4.23522 13.6305 5.03343C14.1421 5.83165 14.4386 6.74855 14.4914 7.69517C14.5442 8.64178 14.3513 9.58597 13.9316 10.4361C13.5119 11.2862 12.8795 12.0134 12.0959 12.5471C13.7834 13.166 15.2471 14.2758 16.2986 15.7336C17.35 17.1914 17.9412 18.9305 17.9959 20.7271C17.9936 20.9208 17.9165 21.1061 17.7808 21.2443C17.645 21.3825 17.4611 21.4629 17.2675 21.4687C17.0739 21.4745 16.8855 21.4053 16.7417 21.2755C16.5979 21.1456 16.5099 20.9653 16.4959 20.7721C16.4364 18.8235 15.6205 16.9747 14.2211 15.6175C12.8217 14.2602 10.9489 13.5012 8.99943 13.5012C7.04997 13.5012 5.17712 14.2602 3.77776 15.6175C2.37839 16.9747 1.56248 18.8235 1.50293 20.7721C1.49292 20.9679 1.40661 21.152 1.26249 21.285C1.11837 21.418 0.927906 21.4892 0.731901 21.4835C0.535896 21.4777 0.34994 21.3954 0.213869 21.2542C0.0777983 21.113 0.00243635 20.9242 0.00392798 20.7281C0.0584793 18.9313 0.649535 17.192 1.70101 15.734C2.75249 14.276 4.21627 13.1661 5.90393 12.5471C5.16301 12.0425 4.55666 11.3644 4.13766 10.5719C3.71867 9.77941 3.49974 8.89651 3.49993 8.00007ZM8.99993 4.00007C7.93906 4.00007 6.92165 4.4215 6.1715 5.17165C5.42136 5.92179 4.99993 6.93921 4.99993 8.00007C4.99993 9.06094 5.42136 10.0784 6.1715 10.8285C6.92165 11.5786 7.93906 12.0001 8.99993 12.0001C10.0608 12.0001 11.0782 11.5786 11.8284 10.8285C12.5785 10.0784 12.9999 9.06094 12.9999 8.00007C12.9999 6.93921 12.5785 5.92179 11.8284 5.17165C11.0782 4.4215 10.0608 4.00007 8.99993 4.00007ZM17.2899 8.00007C17.1426 8.00007 16.9979 8.01007 16.8559 8.03007C16.7568 8.04783 16.6551 8.04543 16.5569 8.02302C16.4587 8.00062 16.366 7.95866 16.2844 7.89966C16.2028 7.84066 16.1339 7.76582 16.0818 7.67961C16.0297 7.5934 15.9955 7.49759 15.9813 7.39788C15.967 7.29818 15.973 7.19662 15.9989 7.09928C16.0247 7.00194 16.0699 6.9108 16.1318 6.8313C16.1936 6.7518 16.2708 6.68558 16.3588 6.63658C16.4468 6.58757 16.5438 6.55679 16.6439 6.54607C17.6385 6.40228 18.6527 6.59327 19.5268 7.089C20.4009 7.58472 21.0854 8.35704 21.4725 9.2844C21.8596 10.2118 21.9274 11.2415 21.6652 12.2116C21.4029 13.1817 20.8256 14.0371 20.0239 14.6431C21.2023 15.1707 22.2028 16.0281 22.9048 17.1117C23.6068 18.1953 23.9802 19.459 23.9799 20.7501C23.9799 20.949 23.9009 21.1398 23.7603 21.2804C23.6196 21.4211 23.4288 21.5001 23.2299 21.5001C23.031 21.5001 22.8403 21.4211 22.6996 21.2804C22.5589 21.1398 22.4799 20.949 22.4799 20.7501C22.4803 19.6341 22.1209 18.5477 21.4552 17.6521C20.7894 16.7565 19.8527 16.0993 18.7839 15.7781L18.2499 15.6181V13.9421L18.6599 13.7331C19.2677 13.4252 19.754 12.9215 20.0402 12.3033C20.3265 11.6851 20.3961 10.9885 20.2378 10.3258C20.0794 9.66321 19.7024 9.07329 19.1675 8.6513C18.6327 8.22931 17.9712 7.99989 17.2899 8.00007Z"
        fill="black" />
</svg>
