<svg fill="none" height="24" viewBox="0 0 24 24" width="24" xmlns="http://www.w3.org/2000/svg">
    <path
        d="M4 15.5H6M8 15.5H16M18 15.5H20M3.127 10.64C4.453 10.915 7.77 11.5 12 11.5C16.23 11.5 19.547 10.915 20.873 10.64M3.127 10.64C4.03234 8.59788 4.50005 6.38881 4.5 4.155V3.5H19.5V4.156C19.5001 6.38947 19.9678 8.59819 20.873 10.64M3.127 10.64C2.75782 11.4726 2.31823 12.2722 1.813 13.03L1.5 13.5V20.5H3.75L3.825 20.38C4.18456 19.8047 4.68454 19.3303 5.27792 19.0014C5.8713 18.6725 6.53858 18.5 7.217 18.5H16.783C17.4614 18.5 18.1287 18.6725 18.7221 19.0014C19.3155 19.3303 19.8154 19.8047 20.175 20.38L20.25 20.5H22.5V13.5L22.187 13.03C21.6817 12.2722 21.2421 11.4726 20.873 10.64"
        stroke="black" />
    <path
        d="M10 10.7664C10.327 11.2573 10.776 11.6044 11.279 11.7552C12.416 12.1151 13.535 11.4826 13.7785 10.3435C14.022 9.20317 13.142 7.96017 12.0055 7.59961C10.869 7.23906 9.9885 5.99667 10.232 4.85694C10.4755 3.71722 11.594 3.08533 12.731 3.44528C13.222 3.5895 13.666 3.92989 14 4.41817M12.0605 11.856V13M12.0605 2V3.34444"
        stroke="black" stroke-linecap="round" stroke-linejoin="round" stroke-width="2" />
</svg>
