<svg width="21" height="21" viewBox="0 0 21 21" fill="none" xmlns="http://www.w3.org/2000/svg">
<path d="M17.2282 14.8478C16.376 14.8478 15.6134 15.1518 15.0303 15.628L7.0347 11.4228C7.09077 11.1897 7.13562 10.9566 7.13562 10.7134C7.13562 10.4703 7.09077 10.2372 7.0347 10.0041L14.9406 5.83941C15.5461 6.34607 16.3423 6.6602 17.2282 6.6602C19.0897 6.6602 20.5924 5.30236 20.5924 3.62026C20.5924 1.93816 19.0897 0.580322 17.2282 0.580322C15.3667 0.580322 13.864 1.93816 13.864 3.62026C13.864 3.86345 13.9089 4.09652 13.9649 4.32958L6.05908 8.49429C5.45352 7.98764 4.65733 7.67351 3.77142 7.67351C1.9099 7.67351 0.407227 9.03135 0.407227 10.7134C0.407227 12.3955 1.9099 13.7534 3.77142 13.7534C4.65733 13.7534 5.45352 13.4393 6.05908 12.9326L14.0434 17.148C13.9874 17.3608 13.9537 17.5837 13.9537 17.8066C13.9537 19.4381 15.4228 20.7655 17.2282 20.7655C19.0337 20.7655 20.5027 19.4381 20.5027 17.8066C20.5027 16.1752 19.0337 14.8478 17.2282 14.8478Z" fill="#8B8585" fill-opacity="0.8"/>
</svg>
