<svg width="21" height="21" viewBox="0 0 21 21" fill="none" xmlns="http://www.w3.org/2000/svg">
<path d="M16.1481 16.7285C16.6835 16.7285 17.1969 16.9411 17.5755 17.3197C17.954 17.6982 18.1667 18.2116 18.1667 18.747C18.1667 19.2823 17.954 19.7957 17.5755 20.1743C17.1969 20.5528 16.6835 20.7655 16.1481 20.7655C15.6128 20.7655 15.0994 20.5528 14.7208 20.1743C14.3423 19.7957 14.1296 19.2823 14.1296 18.747C14.1296 17.6267 15.0279 16.7285 16.1481 16.7285ZM0 0.580322H3.30028L4.24898 2.59884H19.1759C19.4436 2.59884 19.7003 2.70517 19.8896 2.89445C20.0789 3.08372 20.1852 3.34043 20.1852 3.6081C20.1852 3.77967 20.1347 3.95125 20.0641 4.11273L16.4509 10.6426C16.1078 11.2583 15.4417 11.6822 14.6847 11.6822H7.16574L6.25741 13.3273L6.22713 13.4484C6.22713 13.5153 6.25371 13.5795 6.30103 13.6268C6.34835 13.6741 6.41253 13.7007 6.47944 13.7007H18.1667V15.7192H6.05556C5.52021 15.7192 5.00679 15.5065 4.62825 15.128C4.2497 14.7495 4.03704 14.236 4.03704 13.7007C4.03704 13.3475 4.12787 13.0144 4.27926 12.7318L5.65185 10.2591L2.01852 2.59884H0V0.580322ZM6.05556 16.7285C6.5909 16.7285 7.10432 16.9411 7.48286 17.3197C7.86141 17.6982 8.07407 18.2116 8.07407 18.747C8.07407 19.2823 7.86141 19.7957 7.48286 20.1743C7.10432 20.5528 6.5909 20.7655 6.05556 20.7655C5.52021 20.7655 5.00679 20.5528 4.62825 20.1743C4.2497 19.7957 4.03704 19.2823 4.03704 18.747C4.03704 17.6267 4.93528 16.7285 6.05556 16.7285ZM15.1389 9.66366L17.9446 4.61736H5.18759L7.56944 9.66366H15.1389Z" fill="#8B8585" fill-opacity="0.8"/>
</svg>
