<svg width="30" height="30" viewBox="0 0 30 30" fill="none" xmlns="http://www.w3.org/2000/svg">
<path d="M24 24.5C24.663 24.5 25.2989 24.7634 25.7678 25.2322C26.2366 25.7011 26.5 26.337 26.5 27C26.5 27.663 26.2366 28.2989 25.7678 28.7678C25.2989 29.2366 24.663 29.5 24 29.5C23.337 29.5 22.7011 29.2366 22.2322 28.7678C21.7634 28.2989 21.5 27.663 21.5 27C21.5 25.6111 22.6111 24.5 24 24.5ZM8.79177 18.9164L9.27684 19.0376L8.79177 18.9164C8.77518 18.9827 8.73457 19.1472 8.78012 19.3332C8.81787 19.4873 8.89719 19.6296 9.01128 19.7437L9.36483 19.3902L9.01128 19.7437C9.17538 19.9078 9.39794 20 9.63 20H25.5C26.0523 20 26.5 20.4477 26.5 21C26.5 21.5523 26.0523 22 25.5 22H9C8.33696 22 7.70107 21.7366 7.23223 21.2678C6.76339 20.7989 6.5 20.163 6.5 19.5C6.5 19.0618 6.61249 18.6487 6.79908 18.2992C8.15592 15.8523 8.24959 12.9011 7.05047 10.373L3.94986 3.83589C3.5629 3.02004 2.74067 2.5 1.8377 2.5H1.5C0.947715 2.5 0.5 2.05228 0.5 1.5C0.5 0.947715 0.947715 0.5 1.5 0.5H3.24759C4.06542 0.5 4.80961 0.972524 5.15749 1.71268C5.6702 2.80357 6.76705 3.5 7.97241 3.5H28.5C28.7652 3.5 29.0196 3.60536 29.2071 3.79289C29.3946 3.98043 29.5 4.23478 29.5 4.5C29.5 4.65483 29.4551 4.8316 29.3707 5.0292L24.0133 14.7116C24.0132 14.7117 24.0131 14.7119 24.013 14.7121C23.5872 15.4756 22.7604 16 21.825 16H12.9372C11.3441 16 9.87681 16.8659 9.10674 18.2606L8.90844 18.6197C8.85686 18.7131 8.81765 18.8129 8.79177 18.9164ZM9 24.5C9.66304 24.5 10.2989 24.7634 10.7678 25.2322C11.2366 25.7011 11.5 26.337 11.5 27C11.5 27.663 11.2366 28.2989 10.7678 28.7678C10.2989 29.2366 9.66304 29.5 9 29.5C8.33696 29.5 7.70107 29.2366 7.23223 28.7678C6.76339 28.2989 6.5 27.663 6.5 27C6.5 25.6111 7.61114 24.5 9 24.5ZM20.2943 14C21.8373 14 23.259 13.1638 24.0088 11.8152C25.5838 8.98246 23.5355 5.5 20.2943 5.5H13.6267C10.5093 5.5 8.45269 8.74489 9.78335 11.5641C10.4853 13.0513 11.9822 14 13.6267 14H20.2943Z" fill="black" stroke="#616161"/>
</svg>
