<svg fill="none" height="24" viewBox="0 0 24 24" width="24" xmlns="http://www.w3.org/2000/svg">
    <g clip-path="url(#clip0_3_4658)">
        <path
            d="M17.25 10.514C18.1594 10.514 19.0316 10.1527 19.6747 9.50963M17.25 10.514C16.3406 10.514 15.4684 10.1527 14.8253 9.50963M17.25 10.514V13.085M19.6747 9.50963C20.3177 8.86657 20.679 7.99439 20.679 7.08496M19.6747 9.50963L21.493 11.328M20.679 7.08496C20.679 6.17553 20.3177 5.30335 19.6747 4.66029M20.679 7.08496H23.25M19.6747 4.66029C19.0316 4.01723 18.1594 3.65596 17.25 3.65596C16.3406 3.65596 15.4684 4.01723 14.8253 4.66029M19.6747 4.66029L21.493 2.84296M14.8253 4.66029C14.1823 5.30335 13.821 6.17553 13.821 7.08496M14.8253 4.66029L13.007 2.84296M13.821 7.08496C13.821 7.99439 14.1823 8.86657 14.8253 9.50963M13.821 7.08496H11.25M14.8253 9.50963L13.007 11.328M16.679 1.08496H17.821M17.25 1.08496V3.65696M21.089 2.43896L21.897 3.24696M23.25 6.51396V7.65696M21.897 10.924L21.089 11.732M17.821 13.085H16.679M13.411 11.732L12.603 10.924M11.25 7.65696V6.51396M12.603 3.24696L13.411 2.43896M9.75 10.915H8.25C7.85218 10.915 7.47064 11.073 7.18934 11.3543C6.90804 11.6356 6.75 12.0171 6.75 12.415M6.75 12.415V19.2M6.75 12.415H3.75C2.95435 12.415 2.19129 12.731 1.62868 13.2936C1.06607 13.8562 0.75 14.6193 0.75 15.415V19.915C0.75 20.3128 0.908035 20.6943 1.18934 20.9756C1.47064 21.2569 1.85218 21.415 2.25 21.415H4.537M17.962 21.415H18.75C19.1478 21.415 19.5294 21.2569 19.8107 20.9756C20.092 20.6943 20.25 20.3128 20.25 19.915V15.085"
            stroke="black" stroke-linecap="round" stroke-linejoin="round" stroke-width="1.5" />
        <path
            d="M8.212 21.4149H14.288M0.75 17.0159H6.75M6.375 22.9149C6.87228 22.9149 7.34919 22.7173 7.70083 22.3657C8.05246 22.0141 8.25 21.5372 8.25 21.0399C8.25 20.5426 8.05246 20.0657 7.70083 19.714C7.34919 19.3624 6.87228 19.1649 6.375 19.1649C5.87772 19.1649 5.40081 19.3624 5.04917 19.714C4.69754 20.0657 4.5 20.5426 4.5 21.0399C4.5 21.5372 4.69754 22.0141 5.04917 22.3657C5.40081 22.7173 5.87772 22.9149 6.375 22.9149ZM16.125 22.9149C16.6223 22.9149 17.0992 22.7173 17.4508 22.3657C17.8025 22.0141 18 21.5372 18 21.0399C18 20.5426 17.8025 20.0657 17.4508 19.714C17.0992 19.3624 16.6223 19.1649 16.125 19.1649C15.6277 19.1649 15.1508 19.3624 14.7992 19.714C14.4475 20.0657 14.25 20.5426 14.25 21.0399C14.25 21.5372 14.4475 22.0141 14.7992 22.3657C15.1508 22.7173 15.6277 22.9149 16.125 22.9149Z"
            stroke="black" stroke-linecap="round" stroke-linejoin="round" stroke-width="1.5" />
    </g>
    <defs>
        <clipPath id="clip0_3_4658">
            <rect fill="white" height="24" width="24" />
        </clipPath>
    </defs>
</svg>
